<svg xmlns="http://www.w3.org/2000/svg" width="1024" height="1024" viewBox="0 0 1024 1024">
<g>
<path d="M 529.57 580.15 C519.48,585.94 516.93,586.99 513.07,586.96 C512.67,586.95 512.32,586.96 511.99,586.97 C511.67,586.98 511.37,586.99 511.07,586.98 C507.39,586.89 503.75,584.62 451.50,554.48 C442.15,549.09 429.45,541.80 423.28,538.30 C417.10,534.79 410.63,530.72 408.89,529.25 C407.96,528.47 407.17,527.84 406.51,527.09 C403.00,523.13 403.00,516.04 403.02,466.45 L 403.02 463.28 C403.04,409.66 403.15,406.27 404.94,402.32 C405.29,401.56 405.46,400.99 405.70,400.45 C407.15,397.19 411.21,395.09 472.50,359.70 C480.20,355.25 490.98,349.00 496.45,345.81 C505.62,340.45 506.86,340.00 512.45,340.02 C517.23,340.03 519.55,340.63 523.50,342.88 C526.25,344.44 531.65,347.50 535.50,349.68 C561.07,364.18 613.07,394.63 615.86,396.73 C616.85,397.48 617.68,398.08 618.38,398.80 C622.00,402.58 622.00,409.84 622.00,459.74 L 622.00 463.15 C622.00,518.13 621.92,520.53 620.02,524.43 C617.65,529.30 615.27,530.95 588.00,546.57 C576.72,553.03 561.65,561.68 554.50,565.80 C547.35,569.92 536.13,576.38 529.57,580.15 ZM 601.00 506.68 C605.12,509.05 608.86,510.99 609.30,510.99 C609.74,511.00 610.02,489.40 609.93,463.00 C609.84,436.60 609.59,415.00 609.36,415.00 C609.14,415.00 603.45,418.22 596.73,422.15 C590.00,426.08 579.78,431.99 574.00,435.28 C562.39,441.89 543.20,453.03 532.69,459.26 L 525.88 463.30 L 532.69 467.27 C540.12,471.59 588.92,499.76 601.00,506.68 ZM 519.00 523.00 C519.00,549.40 519.19,571.00 519.42,571.00 C519.65,571.00 524.93,568.02 531.17,564.38 C550.18,553.27 559.64,547.80 581.21,535.40 C592.60,528.86 601.81,523.13 601.68,522.68 C601.56,522.23 595.16,518.22 587.48,513.77 C579.79,509.32 570.80,504.11 567.50,502.18 C564.20,500.25 556.55,495.87 550.50,492.45 C544.45,489.02 535.25,483.69 530.05,480.61 C524.85,477.52 520.24,475.00 519.80,475.00 C519.36,475.00 519.00,496.60 519.00,523.00 ZM 509.00 397.01 C549.97,397.29 584.17,397.60 585.00,397.69 C585.83,397.78 587.38,397.51 588.46,397.09 C590.15,396.43 589.73,395.94 585.46,393.51 C582.73,391.96 578.47,389.47 576.00,387.96 C573.53,386.46 562.28,379.94 551.00,373.49 C539.72,367.03 526.84,359.56 522.36,356.87 C517.88,354.19 513.61,352.01 512.86,352.02 C512.11,352.03 507.00,354.64 501.50,357.82 C496.00,361.01 478.67,371.01 463.00,380.05 L 434.50 396.50 ZM 500.91 549.00 L 505.50 556.50 L 505.76 512.01 L 506.02 467.52 L 503.78 465.84 C502.55,464.91 496.59,461.33 490.52,457.89 C484.46,454.45 475.90,449.51 471.50,446.92 C445.79,431.78 428.88,422.00 428.39,422.00 C427.63,422.00 432.95,431.63 450.18,461.50 C458.11,475.25 471.73,498.88 480.45,514.00 C489.18,529.12 498.38,544.88 500.91,549.00 ZM 495.00 445.56 L 512.50 455.79 L 518.00 452.76 C521.03,451.09 525.53,448.48 528.00,446.97 C530.47,445.45 539.92,439.94 549.00,434.73 C558.08,429.52 571.22,421.94 578.21,417.88 L 590.92 410.50 L 551.96 410.24 C530.53,410.09 495.34,410.09 473.76,410.24 L 434.53 410.50 L 456.01 422.91 C467.83,429.74 485.38,439.93 495.00,445.56 ZM 488.50 561.04 C495.06,565.02 494.96,564.76 480.59,540.00 C460.71,505.76 436.67,464.04 426.43,446.02 L 416.50 428.54 L 416.24 473.51 L 415.98 518.48 L 418.24 520.19 C419.48,521.13 423.20,523.43 426.50,525.29 C436.03,530.69 485.19,559.03 488.50,561.04 Z" fill="rgb(30,249,191)"/>
<path d="M 0.00 0.00 L 1024.00 0.00 L 1024.00 1024.00 L 0.00 1024.00 ZM 529.57 580.15 C536.13,576.38 547.35,569.92 554.50,565.80 C561.65,561.68 576.72,553.03 588.00,546.57 C615.27,530.95 617.65,529.30 620.02,524.43 C621.92,520.53 622.00,518.13 622.00,463.15 L 622.00 459.74 C622.00,409.84 622.00,402.58 618.38,398.80 C617.68,398.08 616.85,397.48 615.86,396.73 C613.07,394.63 561.07,364.18 535.50,349.68 C531.65,347.50 526.25,344.44 523.50,342.88 C519.55,340.63 517.23,340.03 512.45,340.02 C506.86,340.00 505.62,340.45 496.45,345.81 C490.98,349.00 480.20,355.25 472.50,359.70 C411.21,395.09 407.15,397.19 405.70,400.45 C405.46,400.99 405.29,401.56 404.94,402.32 C403.15,406.27 403.04,409.66 403.02,463.28 L 403.02 466.45 C403.00,516.04 403.00,523.13 406.51,527.09 C407.17,527.84 407.96,528.47 408.89,529.25 C410.63,530.72 417.10,534.79 423.28,538.30 C429.45,541.80 442.15,549.09 451.50,554.48 C503.75,584.62 507.39,586.89 511.07,586.98 C511.37,586.99 511.67,586.98 511.99,586.97 L 511.99 586.97 C512.32,586.96 512.67,586.95 513.07,586.96 C516.93,586.99 519.48,585.94 529.57,580.15 ZM 601.00 506.68 C588.92,499.76 540.12,471.59 532.69,467.27 L 525.88 463.30 L 532.69 459.26 C543.20,453.03 562.39,441.89 574.00,435.28 C579.78,431.99 590.00,426.08 596.73,422.15 C603.45,418.22 609.14,415.00 609.36,415.00 C609.59,415.00 609.84,436.60 609.93,463.00 C610.02,489.40 609.74,511.00 609.30,510.99 C608.86,510.99 605.12,509.05 601.00,506.68 ZM 519.00 523.00 C519.00,496.60 519.36,475.00 519.80,475.00 C520.24,475.00 524.85,477.52 530.05,480.61 C535.25,483.69 544.45,489.02 550.50,492.45 C556.55,495.87 564.20,500.25 567.50,502.18 C570.80,504.11 579.79,509.32 587.48,513.77 C595.16,518.22 601.56,522.23 601.68,522.68 C601.81,523.13 592.60,528.86 581.21,535.40 C559.64,547.80 550.18,553.27 531.17,564.38 C524.93,568.02 519.65,571.00 519.42,571.00 C519.19,571.00 519.00,549.40 519.00,523.00 ZM 509.00 397.01 L 434.50 396.50 L 463.00 380.05 C478.67,371.01 496.00,361.01 501.50,357.82 C507.00,354.64 512.11,352.03 512.86,352.02 C513.61,352.01 517.88,354.19 522.36,356.87 C526.84,359.56 539.72,367.03 551.00,373.49 C562.28,379.94 573.53,386.46 576.00,387.96 C578.47,389.47 582.73,391.96 585.46,393.51 C589.73,395.94 590.15,396.43 588.46,397.09 C587.38,397.51 585.83,397.78 585.00,397.69 C584.17,397.60 549.97,397.29 509.00,397.01 ZM 500.91 549.00 C498.38,544.88 489.18,529.12 480.45,514.00 C471.73,498.88 458.11,475.25 450.18,461.50 C432.95,431.63 427.63,422.00 428.39,422.00 C428.88,422.00 445.79,431.78 471.50,446.92 C475.90,449.51 484.46,454.45 490.52,457.89 C496.59,461.33 502.55,464.91 503.78,465.84 L 506.02 467.52 L 505.76 512.01 L 505.50 556.50 ZM 495.00 445.56 C485.38,439.93 467.83,429.74 456.01,422.91 L 434.53 410.50 L 473.76 410.24 C495.34,410.09 530.53,410.09 551.96,410.24 L 590.92 410.50 L 578.21 417.88 C571.22,421.94 558.08,429.52 549.00,434.73 C539.92,439.94 530.47,445.45 528.00,446.97 C525.53,448.48 521.03,451.09 518.00,452.76 L 512.50 455.79 ZM 488.50 561.04 C485.19,559.03 436.03,530.69 426.50,525.29 C423.20,523.43 419.48,521.13 418.24,520.19 L 415.98 518.48 L 416.24 473.51 L 416.50 428.54 L 426.43 446.02 C436.67,464.04 460.71,505.76 480.59,540.00 C494.96,564.76 495.06,565.02 488.50,561.04 ZM 680.71 686.38 C681.10,686.77 683.69,686.96 686.46,686.79 L 691.50 686.50 L 691.56 678.76 C691.62,672.04 691.94,670.69 694.01,668.49 C695.31,667.10 696.81,666.10 697.33,666.28 C697.85,666.45 701.48,671.07 705.40,676.54 L 712.54 686.50 L 719.27 686.80 C722.97,686.96 725.99,686.73 725.98,686.30 C725.97,685.86 721.28,679.20 715.56,671.50 L 705.15 657.50 L 708.81 653.50 C710.83,651.30 715.39,646.46 718.96,642.75 L 725.45 636.00 L 711.49 636.00 L 701.99 646.42 C696.77,652.15 692.28,656.88 692.00,656.92 C691.72,656.97 691.64,652.28 691.81,646.50 L 692.13 636.00 L 680.00 636.00 L 680.00 660.83 C680.00,674.49 680.32,685.99 680.71,686.38 ZM 357.66 685.54 C367.61,689.09 380.07,686.14 384.73,679.12 C388.32,673.72 388.99,669.51 388.99,652.25 L 389.00 636.00 L 378.00 636.00 L 377.98 649.75 C377.95,666.40 377.10,670.61 373.04,674.25 C369.59,677.34 366.28,677.71 361.98,675.49 C357.11,672.97 356.58,670.87 356.17,652.75 L 355.80 636.00 L 345.00 636.00 L 345.02 653.75 C345.04,668.86 345.32,672.09 346.89,675.50 C349.20,680.51 352.70,683.78 357.66,685.54 ZM 496.88 685.62 C505.56,688.72 518.58,686.29 522.39,680.86 C525.13,676.96 526.26,671.31 525.03,667.60 C523.27,662.25 519.02,659.12 508.87,655.68 C499.26,652.42 497.37,650.66 500.04,647.45 C501.90,645.21 510.79,645.58 514.86,648.06 C516.71,649.19 518.31,649.97 518.40,649.80 C518.50,649.64 519.86,647.76 521.42,645.64 C521.52,645.51 521.62,645.38 521.71,645.26 C522.90,643.64 523.58,642.72 523.46,641.93 C523.29,640.82 521.56,639.95 517.50,637.78 C511.84,634.75 501.07,634.72 495.40,637.72 C489.02,641.09 486.16,646.73 487.43,653.47 C488.47,659.02 492.99,662.63 502.55,665.54 C513.83,668.98 516.32,671.59 512.02,675.49 C509.26,677.98 501.04,676.95 495.75,673.45 C493.59,672.02 491.71,671.00 491.58,671.18 C491.45,671.35 490.14,673.12 488.67,675.09 C487.20,677.07 486.00,678.95 486.00,679.26 C486.00,680.17 492.90,684.19 496.88,685.62 ZM 641.76 685.58 C647.57,687.65 657.64,687.36 662.43,684.98 C666.27,683.08 672.67,678.13 671.85,677.70 C671.65,677.59 669.82,675.98 667.80,674.11 L 664.12 670.72 L 661.09 673.27 C651.51,681.33 637.00,674.08 637.00,661.23 C637.00,655.74 640.18,649.48 643.96,647.52 C648.68,645.08 656.07,645.56 660.54,648.59 L 664.35 651.18 L 667.64 647.34 C669.45,645.23 670.94,643.18 670.96,642.79 C671.04,641.23 663.34,636.99 658.44,635.90 C646.36,633.20 633.82,638.18 628.71,647.72 C623.62,657.20 624.16,668.78 630.08,676.95 C633.32,681.43 636.30,683.63 641.76,685.58 ZM 570.56 686.10 C570.98,686.77 573.09,686.91 576.36,686.47 C579.19,686.09 581.51,685.71 581.53,685.64 C582.12,683.10 595.61,651.00 596.09,651.00 C596.47,651.00 597.02,651.56 597.30,652.25 C597.58,652.94 600.60,660.47 604.02,669.00 C607.43,677.53 610.68,685.06 611.24,685.75 C612.24,686.99 621.13,687.53 622.25,686.42 C622.81,685.86 617.90,673.54 607.01,648.20 L 601.73 635.91 L 596.18 636.20 L 590.63 636.50 L 586.26 646.50 C575.62,670.86 569.96,685.13 570.56,686.10 ZM 299.71 686.38 C300.10,686.77 302.47,686.96 304.96,686.80 L 309.50 686.50 L 309.79 676.75 L 310.07 667.00 L 334.00 667.00 L 334.00 657.06 L 310.50 656.50 L 310.20 651.25 L 309.90 646.00 L 337.00 646.00 L 337.00 636.00 L 299.00 636.00 L 299.00 660.83 C299.00,674.49 299.32,685.99 299.71,686.38 ZM 545.00 646.00 L 545.00 686.00 L 557.00 686.00 L 557.00 646.00 L 572.00 646.00 L 572.00 636.00 L 530.00 636.00 L 530.00 646.00 ZM 445.25 686.34 C445.94,686.62 454.26,686.88 463.75,686.92 L 481.00 687.00 L 481.00 676.00 L 456.00 676.00 L 456.00 636.00 L 444.00 636.00 L 444.00 660.92 C444.00,679.91 444.30,685.95 445.25,686.34 ZM 404.75 686.26 C407.36,686.47 415.46,686.72 422.75,686.82 L 436.00 687.00 L 436.00 676.00 L 411.00 676.00 L 411.00 636.00 L 400.00 636.00 L 400.00 685.89 Z" fill="rgb(34,30,31)"/>
<path d="M 299.71 686.38 C299.32,685.99 299.00,674.49 299.00,660.83 L 299.00 636.00 L 318.00 636.00 L 337.00 636.00 L 337.00 641.00 L 337.00 646.00 L 323.45 646.00 L 309.90 646.00 L 310.20 651.25 L 310.50 656.50 L 322.25 656.78 L 334.00 657.06 L 334.00 662.03 L 334.00 667.00 L 322.04 667.00 L 310.07 667.00 L 309.79 676.75 L 309.50 686.50 L 304.96 686.80 C302.47,686.96 300.10,686.77 299.71,686.38 ZM 357.66 685.54 C352.70,683.78 349.20,680.51 346.89,675.50 C345.32,672.09 345.04,668.86 345.02,653.75 L 345.00 636.00 L 350.40 636.00 L 355.80 636.00 L 356.17 652.75 C356.58,670.87 357.11,672.97 361.98,675.49 C366.28,677.71 369.59,677.34 373.04,674.25 C377.10,670.61 377.95,666.40 377.98,649.75 L 378.00 636.00 L 383.50 636.00 L 389.00 636.00 L 388.99 652.25 C388.99,669.51 388.32,673.72 384.73,679.12 C380.07,686.14 367.61,689.09 357.66,685.54 ZM 404.75 686.26 L 400.00 685.89 L 400.00 660.95 L 400.00 636.00 L 405.50 636.00 L 411.00 636.00 L 411.00 656.00 L 411.00 676.00 L 423.50 676.00 L 436.00 676.00 L 436.00 681.50 L 436.00 687.00 L 422.75 686.82 C415.46,686.72 407.36,686.47 404.75,686.26 ZM 445.25 686.34 C444.30,685.95 444.00,679.91 444.00,660.92 L 444.00 636.00 L 450.00 636.00 L 456.00 636.00 L 456.00 656.00 L 456.00 676.00 L 468.50 676.00 L 481.00 676.00 L 481.00 681.50 L 481.00 687.00 L 463.75 686.92 C454.26,686.88 445.94,686.62 445.25,686.34 ZM 496.88 685.62 C492.90,684.19 486.00,680.17 486.00,679.26 C486.00,678.95 487.20,677.07 488.67,675.09 C490.14,673.12 491.45,671.35 491.58,671.18 C491.71,671.00 493.59,672.02 495.75,673.45 C501.04,676.95 509.26,677.98 512.02,675.49 C516.32,671.59 513.83,668.98 502.55,665.54 C492.99,662.63 488.47,659.02 487.43,653.47 C486.16,646.73 489.02,641.09 495.40,637.72 C501.07,634.72 511.84,634.75 517.50,637.78 C524.70,641.64 524.57,641.38 521.42,645.64 C519.86,647.76 518.50,649.64 518.40,649.80 C518.31,649.97 516.71,649.19 514.86,648.06 C510.79,645.58 501.90,645.21 500.04,647.45 C497.37,650.66 499.26,652.42 508.87,655.68 C519.02,659.12 523.27,662.25 525.03,667.60 C526.26,671.31 525.13,676.96 522.39,680.86 C518.58,686.29 505.56,688.72 496.88,685.62 ZM 570.56 686.10 C569.96,685.13 575.62,670.86 586.26,646.50 L 590.63 636.50 L 596.18 636.20 L 601.73 635.91 L 607.01 648.20 C617.90,673.54 622.81,685.86 622.25,686.42 C621.13,687.53 612.24,686.99 611.24,685.75 C610.68,685.06 607.43,677.53 604.02,669.00 C600.60,660.47 597.58,652.94 597.30,652.25 C597.02,651.56 596.47,651.00 596.09,651.00 C595.61,651.00 582.12,683.10 581.53,685.64 C581.51,685.71 579.19,686.09 576.36,686.47 C573.09,686.91 570.98,686.77 570.56,686.10 ZM 641.76 685.58 C636.30,683.63 633.32,681.43 630.08,676.95 C624.16,668.78 623.62,657.20 628.71,647.72 C633.82,638.18 646.36,633.20 658.44,635.90 C663.34,636.99 671.04,641.23 670.96,642.79 C670.94,643.18 669.45,645.23 667.64,647.34 L 664.35 651.18 L 660.54 648.59 C656.07,645.56 648.68,645.08 643.96,647.52 C640.18,649.48 637.00,655.74 637.00,661.23 C637.00,674.08 651.51,681.33 661.09,673.27 L 664.12 670.72 L 667.80 674.11 C669.82,675.98 671.65,677.59 671.85,677.70 C672.67,678.13 666.27,683.08 662.43,684.98 C657.64,687.36 647.57,687.65 641.76,685.58 ZM 680.71 686.38 C680.32,685.99 680.00,674.49 680.00,660.83 L 680.00 636.00 L 686.06 636.00 L 692.13 636.00 L 691.81 646.50 C691.64,652.28 691.72,656.97 692.00,656.92 C692.28,656.88 696.77,652.15 701.99,646.42 L 711.49 636.00 L 718.47 636.00 L 725.45 636.00 L 718.96 642.75 C715.39,646.46 710.83,651.30 708.81,653.50 L 705.15 657.50 L 715.56 671.50 C721.28,679.20 725.97,685.86 725.98,686.30 C725.99,686.73 722.97,686.96 719.27,686.80 L 712.54 686.50 L 705.40 676.54 C701.48,671.07 697.85,666.45 697.33,666.28 C696.81,666.10 695.31,667.10 694.01,668.49 C691.94,670.69 691.62,672.04 691.56,678.76 L 691.50 686.50 L 686.46 686.79 C683.69,686.96 681.10,686.77 680.71,686.38 ZM 545.00 666.00 L 545.00 646.00 L 537.50 646.00 L 530.00 646.00 L 530.00 641.00 L 530.00 636.00 L 551.00 636.00 L 572.00 636.00 L 572.00 641.00 L 572.00 646.00 L 564.50 646.00 L 557.00 646.00 L 557.00 666.00 L 557.00 686.00 L 551.00 686.00 L 545.00 686.00 L 545.00 666.00 Z" fill="rgb(155,167,166)"/>
</g>
</svg>